<svg width="21" height="22" viewBox="0 0 21 22" fill="none" xmlns="http://www.w3.org/2000/svg">
<rect x="0.244202" y="0.931641" width="20.4006" height="20.4006" rx="6.00032" fill="#EFEFEF"/>
<path d="M8.40127 16.8413C8.67743 16.8413 8.9013 16.6174 8.9013 16.3412C8.9013 16.0651 8.67743 15.8412 8.40127 15.8412C8.12511 15.8412 7.90125 16.0651 7.90125 16.3412C7.90125 16.6174 8.12511 16.8413 8.40127 16.8413Z" stroke="#404040" stroke-width="0.996054" stroke-linecap="round" stroke-linejoin="round"/>
<path d="M13.9011 16.8413C14.1773 16.8413 14.4012 16.6174 14.4012 16.3412C14.4012 16.0651 14.1773 15.8412 13.9011 15.8412C13.625 15.8412 13.4011 16.0651 13.4011 16.3412C13.4011 16.6174 13.625 16.8413 13.9011 16.8413Z" stroke="#404040" stroke-width="0.996054" stroke-linecap="round" stroke-linejoin="round"/>
<path d="M4.40045 6.34033H6.40056L7.74063 13.0357C7.78636 13.2659 7.9116 13.4727 8.09442 13.6199C8.27725 13.7671 8.50602 13.8452 8.74069 13.8407H13.601C13.8356 13.8452 14.0644 13.7671 14.2472 13.6199C14.43 13.4727 14.5553 13.2659 14.601 13.0357L15.401 8.84047H6.90059" stroke="#404040" stroke-width="0.996054" stroke-linecap="round" stroke-linejoin="round"/>
</svg>
