<svg width="25" height="25" viewBox="0 0 25 25" fill="none" xmlns="http://www.w3.org/2000/svg">
<g clip-path="url(#clip0_1_292)">
<path d="M18.7956 8.25281C18.7956 6.66151 18.1635 5.13539 17.0382 4.01017C15.913 2.88495 14.3869 2.25281 12.7956 2.25281C11.2043 2.25281 9.67817 2.88495 8.55295 4.01017C7.42773 5.13539 6.79559 6.66151 6.79559 8.25281C6.79559 15.2528 3.79559 17.2528 3.79559 17.2528H21.7956C21.7956 17.2528 18.7956 15.2528 18.7956 8.25281Z" fill="#E3E3E3"/>
<path d="M14.5256 21.2528C14.3498 21.5559 14.0975 21.8075 13.7938 21.9823C13.4902 22.1572 13.146 22.2493 12.7956 22.2493C12.4452 22.2493 12.101 22.1572 11.7974 21.9823C11.4938 21.8075 11.2414 21.5559 11.0656 21.2528" stroke="#E3E3E3" stroke-width="2" stroke-linecap="round" stroke-linejoin="round"/>
<circle cx="18.4971" cy="4.95114" r="3.97196" fill="#BB4430"/>
</g>
<defs>
<clipPath id="clip0_1_292">
<rect width="24" height="24" fill="white" transform="translate(0.795593 0.252808)"/>
</clipPath>
</defs>
</svg>
