<svg width="21" height="22" viewBox="0 0 21 22" fill="none" xmlns="http://www.w3.org/2000/svg">
<rect x="0.244202" y="0.922882" width="20.4008" height="20.4008" rx="6.00038" fill="#EFEFEF"/>
<path d="M14.1408 16.3541C14.8312 16.3541 15.3908 15.7945 15.3908 15.1041C15.3908 14.4137 14.8312 13.854 14.1408 13.854C13.4504 13.854 12.8907 14.4137 12.8907 15.1041C12.8907 15.7945 13.4504 16.3541 14.1408 16.3541Z" stroke="black" stroke-width="1.00006" stroke-linecap="round" stroke-linejoin="round"/>
<path d="M7.64028 16.3541C8.33068 16.3541 8.89035 15.7945 8.89035 15.1041C8.89035 14.4137 8.33068 13.854 7.64028 13.854C6.94988 13.854 6.3902 14.4137 6.3902 15.1041C6.3902 15.7945 6.94988 16.3541 7.64028 16.3541Z" stroke="black" stroke-width="1.00006" stroke-linecap="round" stroke-linejoin="round"/>
<path d="M12.8907 9.85446H14.8908L16.3909 11.3546V13.8547H12.8907V9.85446Z" stroke="black" stroke-width="1.00006" stroke-linecap="round" stroke-linejoin="round"/>
<path d="M12.8907 7.35397H5.3902V13.8544H12.8907V7.35397Z" stroke="black" stroke-width="1.00006" stroke-linecap="round" stroke-linejoin="round"/>
</svg>
