<svg width="36" height="36" viewBox="0 0 36 36" fill="none" xmlns="http://www.w3.org/2000/svg">
<path d="M32.352 16.8425C31.0181 10.8121 29.0107 7.59344 26.0329 6.71425C25.4069 6.53064 24.7576 6.43891 24.1053 6.44194C23.2431 6.44194 22.4922 6.65199 21.6979 6.87461C20.7408 7.14315 19.6534 7.44816 18.068 7.44816C16.4825 7.44816 15.3946 7.14378 14.4355 6.87524C13.6406 6.65199 12.8903 6.44194 12.0306 6.44194C11.3561 6.4396 10.6845 6.53103 10.0351 6.71362C7.07307 7.58903 5.0669 10.8064 3.71353 16.8388C2.25828 23.3302 2.97458 27.4287 5.72221 28.3795C6.09884 28.5123 6.49512 28.5808 6.89446 28.582C8.77673 28.582 10.2861 27.0142 11.3174 25.7307C12.4828 24.2779 13.8468 23.5409 18.068 23.5409C21.8382 23.5409 23.3984 24.0521 24.7462 25.7307C25.5933 26.7859 26.3939 27.5243 27.1925 27.989C28.2547 28.6066 29.3163 28.7437 30.3471 28.3896C31.9709 27.8356 32.9016 26.3709 33.1142 24.0352C33.2758 22.2441 33.0268 19.8914 32.352 16.8425ZM15.0493 16.5042H13.0368V18.5166C13.0368 18.7835 12.9308 19.0394 12.7421 19.2282C12.5534 19.4169 12.2975 19.5229 12.0306 19.5229C11.7637 19.5229 11.5078 19.4169 11.3191 19.2282C11.1304 19.0394 11.0244 18.7835 11.0244 18.5166V16.5042H9.01194C8.74507 16.5042 8.48913 16.3982 8.30043 16.2095C8.11172 16.0208 8.00571 15.7648 8.00571 15.498C8.00571 15.2311 8.11172 14.9752 8.30043 14.7865C8.48913 14.5978 8.74507 14.4917 9.01194 14.4917H11.0244V12.4793C11.0244 12.2124 11.1304 11.9565 11.3191 11.7678C11.5078 11.5791 11.7637 11.4731 12.0306 11.4731C12.2975 11.4731 12.5534 11.5791 12.7421 11.7678C12.9308 11.9565 13.0368 12.2124 13.0368 12.4793V14.4917H15.0493C15.3162 14.4917 15.5721 14.5978 15.7608 14.7865C15.9495 14.9752 16.0555 15.2311 16.0555 15.498C16.0555 15.7648 15.9495 16.0208 15.7608 16.2095C15.5721 16.3982 15.3162 16.5042 15.0493 16.5042ZM20.332 16.7557C20.0832 16.7557 19.84 16.682 19.6332 16.5438C19.4263 16.4056 19.2651 16.2091 19.1699 15.9793C19.0747 15.7495 19.0498 15.4966 19.0984 15.2526C19.1469 15.0086 19.2667 14.7845 19.4426 14.6086C19.6185 14.4327 19.8426 14.3129 20.0866 14.2644C20.3306 14.2158 20.5835 14.2407 20.8133 14.3359C21.0431 14.4311 21.2396 14.5923 21.3778 14.7992C21.516 15.006 21.5898 15.2492 21.5898 15.498C21.5898 15.8316 21.4572 16.1515 21.2214 16.3874C20.9855 16.6232 20.6656 16.7557 20.332 16.7557ZM23.0991 19.5229C22.8502 19.5229 22.6069 19.449 22.4 19.3107C22.1931 19.1723 22.0319 18.9757 21.9368 18.7457C21.8417 18.5157 21.8169 18.2626 21.8657 18.0185C21.9145 17.7745 22.0346 17.5504 22.2108 17.3746C22.387 17.1988 22.6115 17.0793 22.8556 17.0311C23.0998 16.9829 23.3528 17.0083 23.5826 17.104C23.8124 17.1996 24.0086 17.3613 24.1464 17.5686C24.2843 17.7758 24.3575 18.0193 24.3569 18.2682C24.356 18.6013 24.2232 18.9204 23.9874 19.1556C23.7516 19.3908 23.4321 19.5229 23.0991 19.5229ZM23.0991 13.9886C22.8503 13.9886 22.6071 13.9149 22.4003 13.7767C22.1935 13.6384 22.0323 13.442 21.9371 13.2122C21.8419 12.9823 21.8169 12.7295 21.8655 12.4855C21.914 12.2415 22.0338 12.0174 22.2097 11.8415C22.3856 11.6656 22.6097 11.5458 22.8537 11.4972C23.0977 11.4487 23.3506 11.4736 23.5804 11.5688C23.8103 11.664 24.0067 11.8252 24.1449 12.0321C24.2831 12.2389 24.3569 12.4821 24.3569 12.7308C24.3569 13.0644 24.2244 13.3844 23.9885 13.6202C23.7526 13.8561 23.4327 13.9886 23.0991 13.9886ZM25.8662 16.7557C25.6174 16.7557 25.3743 16.682 25.1674 16.5438C24.9606 16.4056 24.7994 16.2091 24.7042 15.9793C24.609 15.7495 24.5841 15.4966 24.6326 15.2526C24.6811 15.0086 24.8009 14.7845 24.9768 14.6086C25.1527 14.4327 25.3768 14.3129 25.6208 14.2644C25.8648 14.2158 26.1177 14.2407 26.3475 14.3359C26.5774 14.4311 26.7738 14.5923 26.912 14.7992C27.0502 15.006 27.124 15.2492 27.124 15.498C27.124 15.8316 26.9915 16.1515 26.7556 16.3874C26.5197 16.6232 26.1998 16.7557 25.8662 16.7557Z" fill="url(#paint0_linear_1_279)"/>
<defs>
<linearGradient id="paint0_linear_1_279" x1="18.0693" y1="6.44186" x2="18.0693" y2="28.582" gradientUnits="userSpaceOnUse">
<stop stop-color="#22B04A"/>
<stop offset="1" stop-color="#1E9540"/>
</linearGradient>
</defs>
</svg>
