<svg width="18" height="18" viewBox="0 0 18 18" fill="none" xmlns="http://www.w3.org/2000/svg">
<rect x="0.944885" y="0.605438" width="16.9996" height="16.9996" rx="5" fill="#EFEFEF"/>
<path d="M13.3377 13.4853V12.512C13.3377 11.9957 13.1326 11.5006 12.7675 11.1355C12.4025 10.7705 11.9073 10.5654 11.3911 10.5654H7.49791C6.98165 10.5654 6.48653 10.7705 6.12147 11.1355C5.75642 11.5006 5.55133 11.9957 5.55133 12.512V13.4853" stroke="black" stroke-width="0.973292" stroke-linecap="round" stroke-linejoin="round"/>
<path d="M9.4442 8.61872C10.5193 8.61872 11.3908 7.74721 11.3908 6.67214C11.3908 5.59707 10.5193 4.72556 9.4442 4.72556C8.36913 4.72556 7.49762 5.59707 7.49762 6.67214C7.49762 7.74721 8.36913 8.61872 9.4442 8.61872Z" stroke="black" stroke-width="0.973292" stroke-linecap="round" stroke-linejoin="round"/>
</svg>
