<svg width="91" height="93" viewBox="0 0 91 93" fill="none" xmlns="http://www.w3.org/2000/svg">
<g filter="url(#filter0_ddd_3229_2)">
<rect x="24.164" y="8.69723" width="42.1416" height="43.4414" rx="3" fill="#DDF9E4"/>
</g>
<path d="M51.1152 38.5595C52.3643 38.5595 53.3769 37.5469 53.3769 36.2978C53.3769 35.0487 52.3643 34.0361 51.1152 34.0361C49.8661 34.0361 48.8535 35.0487 48.8535 36.2978C48.8535 37.5469 49.8661 38.5595 51.1152 38.5595Z" stroke="#22A447" stroke-width="2" stroke-linecap="round" stroke-linejoin="round"/>
<path d="M39.3554 38.5595C40.6045 38.5595 41.6171 37.5469 41.6171 36.2978C41.6171 35.0487 40.6045 34.0361 39.3554 34.0361C38.1063 34.0361 37.0937 35.0487 37.0937 36.2978C37.0937 37.5469 38.1063 38.5595 39.3554 38.5595Z" stroke="#22A447" stroke-width="2" stroke-linecap="round" stroke-linejoin="round"/>
<path d="M48.8535 28.8007C48.8535 27.6962 49.7489 26.8007 50.8535 26.8007H51.6438C52.1742 26.8007 52.6829 27.0115 53.058 27.3865L54.6005 28.929C54.9756 29.3041 55.1863 29.8128 55.1863 30.3432V32.0383C55.1863 33.1428 54.2908 34.0383 53.1863 34.0383H50.8535C49.7489 34.0383 48.8535 33.1428 48.8535 32.0383V28.8007Z" stroke="#22A447" stroke-width="2" stroke-linecap="round" stroke-linejoin="round"/>
<path d="M46.8544 22.2763H37.2841C36.1795 22.2763 35.2841 23.1718 35.2841 24.2763V32.0373C35.2841 33.1419 36.1795 34.0373 37.2841 34.0373H46.8544C47.959 34.0373 48.8544 33.1419 48.8544 32.0373V24.2763C48.8544 23.1718 47.959 22.2763 46.8544 22.2763Z" stroke="#22A447" stroke-width="2" stroke-linecap="round" stroke-linejoin="round"/>
<defs>
<filter id="filter0_ddd_3229_2" x="0.164001" y="0.697227" width="90.1416" height="91.4414" filterUnits="userSpaceOnUse" color-interpolation-filters="sRGB">
<feFlood flood-opacity="0" result="BackgroundImageFix"/>
<feColorMatrix in="SourceAlpha" type="matrix" values="0 0 0 0 0 0 0 0 0 0 0 0 0 0 0 0 0 0 127 0" result="hardAlpha"/>
<feOffset/>
<feGaussianBlur stdDeviation="0.5"/>
<feColorMatrix type="matrix" values="0 0 0 0 0 0 0 0 0 0 0 0 0 0 0 0 0 0 0.04 0"/>
<feBlend mode="normal" in2="BackgroundImageFix" result="effect1_dropShadow_3229_2"/>
<feColorMatrix in="SourceAlpha" type="matrix" values="0 0 0 0 0 0 0 0 0 0 0 0 0 0 0 0 0 0 127 0" result="hardAlpha"/>
<feOffset dy="2"/>
<feGaussianBlur stdDeviation="3"/>
<feColorMatrix type="matrix" values="0 0 0 0 0 0 0 0 0 0 0 0 0 0 0 0 0 0 0.04 0"/>
<feBlend mode="normal" in2="effect1_dropShadow_3229_2" result="effect2_dropShadow_3229_2"/>
<feColorMatrix in="SourceAlpha" type="matrix" values="0 0 0 0 0 0 0 0 0 0 0 0 0 0 0 0 0 0 127 0" result="hardAlpha"/>
<feOffset dy="16"/>
<feGaussianBlur stdDeviation="12"/>
<feColorMatrix type="matrix" values="0 0 0 0 0 0 0 0 0 0 0 0 0 0 0 0 0 0 0.06 0"/>
<feBlend mode="normal" in2="effect2_dropShadow_3229_2" result="effect3_dropShadow_3229_2"/>
<feBlend mode="normal" in="SourceGraphic" in2="effect3_dropShadow_3229_2" result="shape"/>
</filter>
</defs>
</svg>
