<svg width="36" height="36" viewBox="0 0 36 36" fill="none" xmlns="http://www.w3.org/2000/svg">
<path d="M28.5125 22.8952L23.5935 17.9677V14.3143C23.5941 14.2032 23.5728 14.0932 23.5308 13.9904C23.4888 13.8876 23.427 13.7941 23.3488 13.7152L14.9113 5.27772C14.8328 5.19863 14.7395 5.13586 14.6367 5.09303C14.5339 5.05019 14.4236 5.02814 14.3122 5.02814C14.2008 5.02814 14.0905 5.05019 13.9877 5.09303C13.8849 5.13586 13.7916 5.19863 13.7131 5.27772L6.11939 12.8715C6.04031 12.9499 5.97754 13.0432 5.9347 13.146C5.89187 13.2489 5.86981 13.3591 5.86981 13.4705C5.86981 13.5819 5.89187 13.6922 5.9347 13.795C5.97754 13.8978 6.04031 13.9912 6.11939 14.0696L14.5569 22.5071C14.6357 22.5853 14.7292 22.6472 14.832 22.6891C14.9348 22.7311 15.0449 22.7524 15.156 22.7518H18.8178L23.7369 27.6793C24.3702 28.3126 25.2291 28.6683 26.1247 28.6683C27.0203 28.6683 27.8792 28.3126 28.5125 27.6793C29.1458 27.046 29.5016 26.1871 29.5016 25.2915C29.5016 24.3959 29.1458 23.5369 28.5125 22.9037V22.8952ZM9.2497 12.129L11.1819 14.0696L12.38 12.8715L10.4394 10.9393L11.781 9.59772L15.4006 13.2258L16.5988 12.0277L12.9706 8.40803L14.3122 7.06647L19.8725 12.6268L13.4685 19.0308L7.90814 13.4705L9.2497 12.129ZM27.3144 26.4727C26.9982 26.787 26.5705 26.9634 26.1247 26.9634C25.6789 26.9634 25.2512 26.787 24.935 26.4727L19.7628 21.309C19.583 21.1853 19.3787 21.1019 19.1638 21.0643H15.5019L14.6581 20.2205L21.0622 13.8165L21.906 14.6602V18.3221C21.9069 18.5434 21.9948 18.7556 22.1506 18.9127L27.3144 24.0933C27.6287 24.4095 27.8051 24.8372 27.8051 25.283C27.8051 25.7288 27.6287 26.1565 27.3144 26.4727Z" fill="url(#paint0_linear_1_273)"/>
<path d="M27.3144 26.4727C26.9982 26.787 26.5705 26.9634 26.1247 26.9634C25.6789 26.9634 25.2512 26.787 24.935 26.4727L19.7628 21.309C19.583 21.1853 19.3787 21.1019 19.1638 21.0643H15.5019L14.6581 20.2205L21.0622 13.8165L21.906 14.6602V18.3221C21.9069 18.5434 21.9948 18.7556 22.1506 18.9127L27.3144 24.0933C27.6287 24.4095 27.8051 24.8372 27.8051 25.283C27.8051 25.7288 27.6287 26.1565 27.3144 26.4727Z" fill="url(#paint1_linear_1_273)"/>
<defs>
<linearGradient id="paint0_linear_1_273" x1="17.6857" y1="5.02814" x2="17.6857" y2="28.6683" gradientUnits="userSpaceOnUse">
<stop stop-color="#FFA764"/>
<stop offset="1" stop-color="#F17F29"/>
</linearGradient>
<linearGradient id="paint1_linear_1_273" x1="17.6857" y1="5.02814" x2="17.6857" y2="28.6683" gradientUnits="userSpaceOnUse">
<stop stop-color="#FFA764"/>
<stop offset="1" stop-color="#F17F29"/>
</linearGradient>
</defs>
</svg>
